<svg viewBox="0 0 1024 1024" xmlns="http://www.w3.org/2000/svg" id="图层_1"><defs><style>.cls-1{fill:#ffa836;}.cls-2{fill:#262d33;}.cls-3{fill:#0078ff;}.cls-4{fill:#02c3ff;}.cls-5{fill:#fbf5f0;}.cls-6{fill:#fe7236;}</style></defs><path d="M442.41,375.86v78.43a209,209,0,0,0-86,57.71l-.62.7a208,208,0,0,0-52.54,138.48V373.51H442.35C442.35,374.3,442.37,375.08,442.41,375.86Z" class="cls-1"></path><path d="M303.23,653.43a2.24,2.24,0,0,1-2.25-2.25V373.51a2.25,2.25,0,0,1,2.25-2.25H442.35a2.26,2.26,0,0,1,2.25,2.24c0,.76,0,1.51.06,2.26v78.53a2.25,2.25,0,0,1-1.5,2.12,207.15,207.15,0,0,0-85.09,57.09l-.62.69a206.22,206.22,0,0,0-52,137A2.25,2.25,0,0,1,303.23,653.43Zm2.25-277.67v232a210.61,210.61,0,0,1,48.6-96.57l.65-.72a211.74,211.74,0,0,1,85.43-57.78V375.91c0-.05,0-.1,0-.15Z" class="cls-2"></path><path d="M720.77,372.82V651.18A208.95,208.95,0,0,0,581.59,454.29V375.86c0-1,.07-2,.07-3Z" class="cls-3"></path><path d="M720.77,653.43a2.25,2.25,0,0,1-2.25-2.25A206.71,206.71,0,0,0,580.84,456.41a2.25,2.25,0,0,1-1.5-2.12V375.86c0-1.08.07-2.06.07-3a2.25,2.25,0,0,1,2.25-2.25H720.77a2.24,2.24,0,0,1,2.25,2.25V651.18A2.24,2.24,0,0,1,720.77,653.43ZM583.84,452.7A211.35,211.35,0,0,1,718.52,607.76V375.07H583.88c0,.3,0,.6,0,.9Z" class="cls-2"></path><path d="M720.77,372.82H581.59a69.63,69.63,0,0,0-139.25,0c0,.23,0,.46,0,.69H303.23v-.69C303.23,257.51,396.69,164,512,164S720.77,257.51,720.77,372.82Z" class="cls-4"></path><path d="M442.35,375.76H303.23a2.25,2.25,0,0,1-2.25-2.18v-.76c0-116.36,94.66-211,211-211s211,94.67,211,211a2.25,2.25,0,0,1-2.25,2.25H581.59a2.25,2.25,0,0,1-2.25-2.25,67.38,67.38,0,0,0-134.75,0c0,.2,0,.41,0,.62a2.28,2.28,0,0,1-.64,1.64A2.21,2.21,0,0,1,442.35,375.76Zm-136.87-4.5H440.11a71.88,71.88,0,0,1,143.7-.69h134.7C717.3,257.72,625.13,166.29,512,166.29,398.64,166.29,306.32,258.1,305.48,371.26Z" class="cls-2"></path><path d="M512,723a71.94,71.94,0,0,1-71.91-71.79,2,2,0,0,1,.07-.55V375.86h4.5V651.18a2.51,2.51,0,0,1-.07.55,67.41,67.41,0,0,0,134.82,0,2.26,2.26,0,0,1-.07-.53V372.82a67.38,67.38,0,0,0-134.75,0c0,.2,0,.41,0,.62l-4.5.14c0-.25,0-.51,0-.76a71.88,71.88,0,0,1,143.75,0V650.65a1.88,1.88,0,0,1,.07.53A71.94,71.94,0,0,1,512,723Z" class="cls-2"></path><path d="M355.77,512.7a208,208,0,0,0-52.54,138.48C303.23,766.49,396.69,860,512,860s208.77-93.47,208.77-208.78A208.95,208.95,0,0,0,581.59,454.29V648.14c0,1,.07,2,.07,3a69.66,69.66,0,0,1-139.32,0c0-1,0-2,.07-3V454.29a209,209,0,0,0-86,57.71" class="cls-4"></path><path d="M512,862.21c-116.36,0-211-94.67-211-211a210.77,210.77,0,0,1,53.1-140l3.37,3a206.22,206.22,0,0,0-52,137c0,113.88,92.64,206.53,206.52,206.53s206.52-92.65,206.52-206.53A206.71,206.71,0,0,0,583.84,457.5V648.14c0,.94.07,2,.07,3a71.91,71.91,0,0,1-143.82,0c0-1.06,0-2.1.07-3.15V457.5a207.2,207.2,0,0,0-82.09,56l-3.35-3a211.54,211.54,0,0,1,86.94-58.33,2.24,2.24,0,0,1,2,.28,2.27,2.27,0,0,1,1,1.84V648.14c-.05,1.08-.07,2.06-.07,3a67.41,67.41,0,0,0,134.82,0c0-1,0-2-.07-2.93v-194a2.27,2.27,0,0,1,.95-1.84,2.24,2.24,0,0,1,2.05-.28A211.22,211.22,0,0,1,723,651.18C723,767.54,628.36,862.21,512,862.21Z" class="cls-2"></path><path d="M355.77,512.7a208,208,0,0,0-52.54,138.48C303.23,766.49,396.69,860,512,860s208.77-93.47,208.77-208.78A208.95,208.95,0,0,0,581.59,454.29V648.14c0,1,.07,2,.07,3a69.66,69.66,0,0,1-139.32,0c0-1,0-2,.07-3V454.29a209,209,0,0,0-86,57.71Z" class="cls-4"></path><path d="M512,862.21c-116.36,0-211-94.67-211-211a210.77,210.77,0,0,1,53.1-140h0l.62-.7a211.61,211.61,0,0,1,86.94-58.32,2.24,2.24,0,0,1,2,.28,2.27,2.27,0,0,1,1,1.84V648.14c-.05,1.08-.07,2.06-.07,3a67.41,67.41,0,0,0,134.82,0c0-1,0-2-.07-2.93v-194a2.27,2.27,0,0,1,.95-1.84,2.24,2.24,0,0,1,2.05-.28A211.22,211.22,0,0,1,723,651.18C723,767.54,628.36,862.21,512,862.21Zm-154.55-348a206.22,206.22,0,0,0-52,137c0,113.88,92.64,206.53,206.52,206.53s206.52-92.65,206.52-206.53A206.71,206.71,0,0,0,583.84,457.5V648.14c0,.94.07,2,.07,3a71.91,71.91,0,0,1-143.82,0c0-1.06,0-2.1.07-3.15V457.5a207.2,207.2,0,0,0-82.09,56l-.62.69Z" class="cls-2"></path><path d="M511.56,577.75a25.41,25.41,0,0,0-2.33,2.39c-4.45-9.09-20.92-43.32-19-50.31.31-1.16,1.09-1.14,2.19-.29v0l3.73,11.5,1.8-4.62c.12.18.26.36.38.56.27-2.25.85-4.43,2.1-3.15,1.5,1.51,1,5,.49,7.21,3.39,5.48,7,11.91,10,17.45C508.71,561.49,506.71,567.33,511.56,577.75Z" class="cls-5"></path><path d="M509.23,581.64h-.18a1.51,1.51,0,0,1-1.16-.83c-7.95-16.22-21-44.45-19.14-51.36a2.52,2.52,0,0,1,1.61-1.9,3.28,3.28,0,0,1,2.95.82,1.52,1.52,0,0,1,.54.84l2.4,7.4.28-.7a1.54,1.54,0,0,1,.54-.69c.39-1.84,1-2.8,2-3.13a2.24,2.24,0,0,1,2.41.72c1.81,1.83,1.6,5.24,1,8,2.8,4.54,6.07,10.26,9.74,17a1.49,1.49,0,0,1-.11,1.61c-2.08,2.82-3.64,8.18.8,17.72a1.5,1.5,0,0,1-.36,1.75,23,23,0,0,0-2.18,2.24A1.51,1.51,0,0,1,509.23,581.64ZM491.6,532c.55,6.42,7.3,23.47,18,45.53l.13-.13c-4.15-9.5-2.79-15.46-.59-19-3.61-6.59-6.82-12.16-9.54-16.57a1.5,1.5,0,0,1-.19-1.13,14.19,14.19,0,0,0,.45-4.2q0,.3-.09.66a1.52,1.52,0,0,1-1,1.25l-1.24,3.18a1.53,1.53,0,0,1-1.44.95,1.49,1.49,0,0,1-1.38-1Z" class="cls-2"></path><path d="M544.84,596.23c-4.75-6-19.75-21.43-19.75-21.43l.66-6.9c-7.37-4.26-7.73-9.54-7.73-9.54l-4,.51a16.48,16.48,0,0,0-1.36,2.79c-1,2.68-1.61,6.63,2.35,8.46l.15,5a20.92,20.92,0,0,0-3.55,2.65c-4.85-10.42-2.85-16.26-.65-19.24a11.39,11.39,0,0,1,2.1-2.21c2.1-1.68,3.36-.48,3.36-.48s2.33-4.2,6.32-2.74,7.62,14,13.47,15.52S551,564.37,558,575.8,552.79,596.77,544.84,596.23Z" class="cls-1"></path><path d="M545.52,597.75c-.26,0-.52,0-.78,0a1.49,1.49,0,0,1-1.07-.56C539,591.32,524.16,576,524,575.84a1.49,1.49,0,0,1-.42-1.19l.57-6c-4.93-3.11-6.69-6.68-7.3-8.67l-2,.24a14.69,14.69,0,0,0-.89,1.93c-1.86,5,.73,6.17,1.58,6.56a1.5,1.5,0,0,1,.87,1.32l.15,5a1.5,1.5,0,0,1-.77,1.36,19.62,19.62,0,0,0-3.27,2.45,1.5,1.5,0,0,1-1.31.36,1.47,1.47,0,0,1-1.06-.83c-5.06-10.88-3.06-17.3-.49-20.77a12.92,12.92,0,0,1,2.36-2.49,4.6,4.6,0,0,1,3.76-1.15,6.47,6.47,0,0,1,7.37-2.31c2.27.82,4,3.76,6.09,7.17,2.15,3.57,4.58,7.62,7.24,8.31a16.7,16.7,0,0,0,5.26,0c5.1-.45,12.06-1.06,17.52,7.84,2.94,4.8,3.06,9.92.34,14.42C556.72,594.29,550.76,597.75,545.52,597.75Zm-18.87-23.5c2.56,2.66,14.26,14.81,18.93,20.5a14.71,14.71,0,0,0,11.5-6.86c1.5-2.47,2.65-6.44-.33-11.3-4.49-7.32-9.67-6.86-14.69-6.42a19,19,0,0,1-6.28-.11c-3.85-1-6.62-5.61-9.06-9.67-1.54-2.55-3.28-5.44-4.54-5.9-2.68-1-4.32,1.75-4.5,2.07a1.76,1.76,0,0,1-.29.37l.44-.06a1.54,1.54,0,0,1,1.15.33,1.52,1.52,0,0,1,.54,1c0,.17.49,4.6,7,8.35a1.49,1.49,0,0,1,.74,1.44Zm-15.07-14c-1.65,2.79-2.56,7.49.55,15.1.57-.45,1.07-.79,1.46-1l-.1-3.25c-3.11-1.9-3.95-5.45-2.29-9.9C511.32,560.81,511.45,560.5,511.58,560.22Zm3.62-3.33a2,2,0,0,0-1.07.44l1.53-.19a1.44,1.44,0,0,1-.32-.23Z" class="cls-2"></path><path d="M544.84,597.73h-.06a1.5,1.5,0,0,1,0-3,1.52,1.52,0,0,1,1.53,1.5A1.47,1.47,0,0,1,544.84,597.73Z" class="cls-2"></path><path d="M558.43,625.54c-.27,3.27-2.43,4.11-4.56,4.11a13,13,0,0,1-4-.75l-.48-.18s-1.44-9-9.08-20a72.23,72.23,0,0,0-9.36-11c-1.15,13.1-3.81,44.12-3.42,48.74.5,5.88,19,65.29,19,65.29l-12.72,4.43s-19.85-57.29-23.3-66.83c-1.62-4.53-2.14-12.72-2.23-20.08l-18.69-6.57L514,665.08l-11.8,6.54c-26.07-35.53-36.23-57.76-31.35-62.19s34.9-.45,34.9-.45-2.31-17.67.5-24.1a20.1,20.1,0,0,1,3-4.74,25.41,25.41,0,0,1,2.33-2.39,20.92,20.92,0,0,1,3.55-2.65l-.15-5c-4-1.83-3.36-5.78-2.35-8.46a16.48,16.48,0,0,1,1.36-2.79l4-.51s.36,5.28,7.73,9.54l-.66,6.9s15,15.46,19.75,21.43a12.93,12.93,0,0,1,1.32,1.86c.48.93,1.74,3,3.27,5.7,3.5,6.12,8.45,15.23,9,20.4v0A7.54,7.54,0,0,1,558.43,625.54Z" class="cls-5"></path><path d="M533.79,717.75a1.52,1.52,0,0,1-.66-.15,1.53,1.53,0,0,1-.76-.86c-.14-.42-10.52-30.36-17.52-50.4l-.09.06L503,672.94a1.5,1.5,0,0,1-1.93-.43c-12.25-16.69-39.79-56.35-31.15-64.19,4.67-4.23,26.4-2,34.2-1.07-.52-4.85-1.57-17.47.83-23a21.29,21.29,0,0,1,3.17-5.09,25,25,0,0,1,2.49-2.55,24.09,24.09,0,0,1,3-2.36l-.1-3.25c-3.11-1.9-3.95-5.45-2.29-9.9a18.73,18.73,0,0,1,1.51-3.07,1.46,1.46,0,0,1,1.07-.68l4.05-.51a1.54,1.54,0,0,1,1.15.33,1.52,1.52,0,0,1,.54,1c0,.17.49,4.6,7,8.35a1.49,1.49,0,0,1,.74,1.44l-.59,6.21c2.65,2.74,15,15.62,19.37,21a12.83,12.83,0,0,1,1.48,2.12c.29.55.88,1.57,1.65,2.89.47.81,1,1.73,1.58,2.74,4,7,8.62,15.65,9.16,21a.76.76,0,0,1,0,.15,8.9,8.9,0,0,1,0,1.46v0c-.29,3.48-2.5,5.48-6.06,5.48a14.53,14.53,0,0,1-4.49-.83l-.47-.18a1.48,1.48,0,0,1-1-1.18c0-.08-1.51-8.79-8.83-19.36a70.49,70.49,0,0,0-6.91-8.47c-2.26,25.82-3.4,42.25-3.14,45.27.39,4.69,13.78,48.5,18.91,65a1.5,1.5,0,0,1-.94,1.86l-12.72,4.42A1.37,1.37,0,0,1,533.79,717.75Zm-44.22-96.48a1.8,1.8,0,0,1,.5.08l18.69,6.57a1.51,1.51,0,0,1,1,1.4c.11,9.2.85,16,2.14,19.6,3.11,8.59,19.73,56.51,22.81,65.42l9.94-3.46c-2.86-9.19-18.15-58.69-18.61-64.23-.38-4.52,2-32.64,3.42-49a1.5,1.5,0,0,1,2.53-.95,73.89,73.89,0,0,1,9.56,11.18c6.44,9.31,8.57,17.13,9.14,19.71a11.2,11.2,0,0,0,3.18.55c2,0,2.91-.81,3.07-2.72a6.83,6.83,0,0,0,0-1.08v-.05c-.57-5.41-6.74-16.21-8.77-19.76-.57-1-1.1-1.92-1.57-2.72-.81-1.38-1.42-2.45-1.73-3a11,11,0,0,0-1.16-1.61C539,591.32,524.16,576,524,575.84a1.49,1.49,0,0,1-.42-1.19l.57-6c-4.93-3.11-6.69-6.68-7.3-8.67l-2,.24a14.69,14.69,0,0,0-.89,1.93c-1.86,5,.73,6.17,1.58,6.56a1.5,1.5,0,0,1,.87,1.32l.15,5a1.5,1.5,0,0,1-.77,1.36,19.62,19.62,0,0,0-3.27,2.45,23.17,23.17,0,0,0-2.19,2.25,18.26,18.26,0,0,0-2.73,4.37c-2.16,5-1,18.51-.38,23.31a1.49,1.49,0,0,1-.43,1.25,1.52,1.52,0,0,1-1.25.43c-11.34-1.5-30.52-2.81-33.71.08-2.59,2.35.56,17.74,30.78,59.12l9.31-5.16-23.7-41a1.49,1.49,0,0,1,1.3-2.25Zm3.33,4.26,19.45,33.65c-1.49-4.24-2.65-7.53-3.27-9.25-1.37-3.84-2.15-10.4-2.31-19.52Zm65.53,0h0Z" class="cls-2"></path><path d="M531,597.79c-1.51-1.47-3.16-2.92-4.93-4.36" class="cls-5"></path><path d="M531,599.29a1.5,1.5,0,0,1-1-.42c-1.46-1.42-3.09-2.86-4.84-4.28a1.5,1.5,0,0,1,1.89-2.33c1.82,1.48,3.51,3,5,4.46a1.5,1.5,0,0,1,0,2.12A1.52,1.52,0,0,1,531,599.29Z" class="cls-2"></path><path d="M508.26,629.34c-.11-8.19.1-10.82.1-10.82" class="cls-5"></path><path d="M508.26,630.84a1.5,1.5,0,0,1-1.5-1.48c-.11-8.17.1-10.85.11-11a1.5,1.5,0,0,1,3,.24s-.2,2.7-.1,10.68a1.5,1.5,0,0,1-1.48,1.52Z" class="cls-2"></path><path d="M492.39,529.56a23.2,23.2,0,0,1,3.73,4.29h0c.59.78,1.17,1.64,1.8,2.57h0" class="cls-5"></path><path d="M497.92,537.93a1.49,1.49,0,0,1-1.32-.78c-.58-.86-1.13-1.66-1.68-2.39l-.1-.15a21.61,21.61,0,0,0-3.36-3.88,1.5,1.5,0,1,1,1.86-2.35,24.3,24.3,0,0,1,4,4.58l.08.12c.57.77,1.14,1.6,1.75,2.5a1.52,1.52,0,0,1,.26.85A1.5,1.5,0,0,1,497.92,537.93Z" class="cls-2"></path><path d="M549.87,628.9l-8,4.4-10.53-19.68,9-4.88c7.64,11,9.08,20,9.08,20Z" class="cls-6"></path><path d="M541.87,634.8a1.52,1.52,0,0,1-.42-.06,1.51,1.51,0,0,1-.9-.74L530,614.32a1.49,1.49,0,0,1,.61-2l9-4.88a1.51,1.51,0,0,1,1.95.47c6.49,9.38,8.61,17.26,9.16,19.77a1.47,1.47,0,0,1,.65,1.15,1.49,1.49,0,0,1-.77,1.41l-8,4.39A1.52,1.52,0,0,1,541.87,634.8Zm-8.5-20.58,9.11,17,5.3-2.91a54.85,54.85,0,0,0-7.95-17.63Z" class="cls-2"></path><path d="M572.07,616.66l-13.67,7.53c-.52-5.17-5.47-14.28-9-20.4l11.46-6.21,1.35,2.31Z" class="cls-6"></path><path d="M558.4,625.69a1.45,1.45,0,0,1-.7-.17,1.51,1.51,0,0,1-.79-1.18c-.55-5.39-6.74-16.24-8.78-19.8a1.51,1.51,0,0,1,.59-2.07l11.46-6.21a1.51,1.51,0,0,1,2,.57l11.17,19.07a1.51,1.51,0,0,1-.57,2.08l-13.66,7.53A1.58,1.58,0,0,1,558.4,625.69Zm-6.91-21.31c3.28,5.81,6.8,12.54,8,17.49L570,616.09l-9.66-16.5Z" class="cls-2"></path><polygon points="572.07 616.66 562.24 599.89 566.98 597.16 572.07 616.66" class="cls-3"></polygon><path d="M572.07,618.16a1.51,1.51,0,0,1-1.3-.74L561,600.65a1.52,1.52,0,0,1-.16-1.14,1.55,1.55,0,0,1,.7-.92l4.74-2.73a1.52,1.52,0,0,1,1.33-.08,1.48,1.48,0,0,1,.87,1l5.09,19.5a1.51,1.51,0,0,1-.88,1.77A1.44,1.44,0,0,1,572.07,618.16Zm-7.77-17.72,3.58,6.11L566,599.44Z" class="cls-2"></path><polyline points="512.29 499.14 497.92 536.43 497.92 536.44" class="cls-5"></polyline><path d="M497.92,537.94a1.5,1.5,0,0,1-1.5-1.5,1.72,1.72,0,0,1,.1-.55l14.37-37.29a1.5,1.5,0,1,1,2.8,1.08l-14.35,37.24A1.51,1.51,0,0,1,497.92,537.94Z" class="cls-2"></path><path d="M496.12,542.56a1.5,1.5,0,0,1-1.5-1.5V503.43a1.5,1.5,0,1,1,3,0v37.63A1.5,1.5,0,0,1,496.12,542.56Z" class="cls-2"></path><line y2="511.09" x2="486.37" y1="529.54" x1="492.39" class="cls-5"></line><path d="M492.39,531a1.51,1.51,0,0,1-1.43-1l-6-18.45a1.5,1.5,0,1,1,2.85-.93l6,18.45a1.5,1.5,0,0,1-1,1.89A1.47,1.47,0,0,1,492.39,531Z" class="cls-2"></path><path d="M515.58,496.57l1.44,2.57h-7.65l1.29-2.6a15.34,15.34,0,0,1-9.17-6.64c8.09-3.15,14-13.2,14-25.13a33.8,33.8,0,0,0-1.77-10.93c8.55.37,15.4,9.85,15.4,21.48C529.12,486.09,523.24,495,515.58,496.57Z" class="cls-6"></path><path d="M517,500.64h-7.65a1.5,1.5,0,0,1-1.35-2.17l.5-1a17.6,17.6,0,0,1-8.26-6.73,1.5,1.5,0,0,1,.69-2.25c7.67-3,13-12.75,13-23.73a32.24,32.24,0,0,0-1.69-10.45,1.49,1.49,0,0,1,.22-1.38,1.46,1.46,0,0,1,1.26-.6c9.45.41,16.84,10.51,16.84,23,0,10.54-5.28,19.49-12.8,22.18l.51.9a1.51,1.51,0,0,1,0,1.5A1.49,1.49,0,0,1,517,500.64Zm-5.23-3h2.67l-.19-.33a1.49,1.49,0,0,1-.06-1.36,1.52,1.52,0,0,1,1.07-.85c7-1.43,12.34-9.94,12.34-19.78,0-9.65-5.11-17.9-11.78-19.65a35.91,35.91,0,0,1,1.15,9.1c0,11.35-5.33,21.59-13.17,25.71a13.21,13.21,0,0,0,7.15,4.6,1.49,1.49,0,0,1,1,2.13Z" class="cls-2"></path><path d="M496.12,493.74v9.69a14.5,14.5,0,0,1-8.13,5.1l1.44,2.56H481.8l1.27-2.59c-7.59-1.64-13.38-10.52-13.38-21.21,0-7.62,2.93-14.3,7.35-18.12,1.38,11,7.83,19.65,16,21.4l-1.54,3.17Z" class="cls-1"></path><path d="M489.43,512.59H481.8a1.49,1.49,0,0,1-1.35-2.16l.49-1c-7.49-2.7-12.75-11.66-12.75-22.15,0-7.8,2.94-15,7.87-19.26a1.5,1.5,0,0,1,1.52-.26,1.48,1.48,0,0,1,.95,1.21c1.31,10.41,7.26,18.5,14.82,20.13a1.46,1.46,0,0,1,1,.81,1.51,1.51,0,0,1,0,1.31l-.49,1h2.23a1.5,1.5,0,0,1,1.5,1.5v9.69a1.48,1.48,0,0,1-.35,1,16.6,16.6,0,0,1-7,5.07l.5.9a1.49,1.49,0,0,1-1.31,2.23Zm-5.22-3h2.66l-.19-.33a1.51,1.51,0,0,1-.05-1.36,1.48,1.48,0,0,1,1.07-.84,12.78,12.78,0,0,0,6.92-4.19v-7.63h-3.13a1.49,1.49,0,0,1-1.27-.71,1.47,1.47,0,0,1-.08-1.45l.75-1.54c-7.18-2.43-12.83-9.77-14.83-19.21a23.81,23.81,0,0,0-4.87,15c0,9.75,5.25,18.24,12.2,19.74a1.5,1.5,0,0,1,1,2.13Z" class="cls-2"></path><path d="M501.42,489.93a24.63,24.63,0,0,1-5.3,13.5v-9.69h4.65L499,490.62A15.31,15.31,0,0,0,501.42,489.93Z" class="cls-5"></path><path d="M496.12,504.93a1.5,1.5,0,0,1-1.5-1.5v-9.69a1.5,1.5,0,0,1,1.5-1.5h2.09l-.5-.89a1.49,1.49,0,0,1,1-2.2,14.26,14.26,0,0,0,2.16-.62,1.5,1.5,0,0,1,2,1.53,26.08,26.08,0,0,1-5.64,14.33A1.49,1.49,0,0,1,496.12,504.93Zm1.5-9.69v3.08a23.78,23.78,0,0,0,1.22-3.08Z" class="cls-2"></path><path d="M515.49,464.77c0,11.93-5.91,22-14,25.13,0,0-.06,0-.07,0a15.31,15.31,0,0,1-2.4.69l1.75,3.12h-9.28l1.54-3.17c-8.16-1.75-14.61-10.41-16-21.4a35.25,35.25,0,0,1-.27-4.4c0-14.43,8.67-26.13,19.35-26.13,7.8,0,14.54,6.23,17.6,15.2A33.8,33.8,0,0,1,515.49,464.77Z" class="cls-3"></path><path d="M500.77,495.24h-9.28a1.49,1.49,0,0,1-1.27-.71,1.47,1.47,0,0,1-.08-1.45l.75-1.54c-7.91-2.69-14-11.33-15.34-22.19a38.06,38.06,0,0,1-.28-4.58c0-15.23,9.35-27.63,20.85-27.63,8.19,0,15.66,6.37,19,16.21A35.14,35.14,0,0,1,517,464.77c0,12.19-6.15,23.1-14.95,26.53h0l0,0-.69.24.81,1.43a1.5,1.5,0,0,1-1.31,2.24Zm-6.88-3h4.32l-.5-.89a1.49,1.49,0,0,1,1-2.2,13.11,13.11,0,0,0,2.13-.61.49.49,0,0,1,.17-.06c7.68-3.11,13-12.81,13-23.71a32.24,32.24,0,0,0-1.69-10.45c-2.94-8.61-9.29-14.18-16.18-14.18-9.84,0-17.85,11.05-17.85,24.63a34.11,34.11,0,0,0,.26,4.21c1.31,10.41,7.26,18.5,14.82,20.13a1.46,1.46,0,0,1,1,.81,1.51,1.51,0,0,1,0,1.31Zm7.57-2.33h0Z" class="cls-2"></path></svg>