<svg viewBox="0 0 1024 1024" xmlns="http://www.w3.org/2000/svg" id="图层_1"><defs><style>.cls-1{fill:#02c3ff;}.cls-1,.cls-2{stroke:#262d33;stroke-linejoin:round;stroke-width:4.5px;}.cls-2,.cls-6{fill:#0078ff;}.cls-3{fill:#262d33;}.cls-4{fill:#fe7236;}.cls-5{fill:#ffa836;}.cls-7{fill:#fbf5f0;}</style></defs><polygon points="423.65 690.95 244.69 690.95 244.69 512 423.65 690.95" class="cls-1"></polygon><rect height="178.96" width="178.96" y="333.04" x="244.69" class="cls-1"></rect><rect height="178.95" width="89.49" y="154.09" x="334.16" class="cls-1"></rect><rect height="178.95" width="89.47" y="154.09" x="244.69" class="cls-1"></rect><rect height="178.96" width="178.96" y="154.09" x="602.6" class="cls-1"></rect><rect height="178.96" width="178.96" y="333.04" x="602.6" class="cls-1"></rect><path d="M453.47,512a14.91,14.91,0,0,1-29.82,0V691h179V512a14.91,14.91,0,1,1-29.82,0A14.92,14.92,0,0,1,543,512a14.91,14.91,0,0,1-29.82,0,14.92,14.92,0,0,1-29.83,0,14.92,14.92,0,0,1-29.83,0Z" class="cls-2"></path><rect height="178.96" width="178.96" y="512" x="602.6" class="cls-1"></rect><rect height="178.96" width="178.96" y="690.96" x="602.6" class="cls-1"></rect><path d="M602.6,693.21h-179A2.25,2.25,0,0,1,421.4,691V512h4.5V688.71H600.35V512h4.5V691A2.25,2.25,0,0,1,602.6,693.21Z" class="cls-3"></path><polygon points="736.82 288.3 647.34 288.3 647.34 198.82 736.82 288.3" class="cls-4"></polygon><path d="M736.82,290.55H647.34a2.25,2.25,0,0,1-2.25-2.25V198.82a2.25,2.25,0,0,1,3.84-1.59l89.48,89.48a2.25,2.25,0,0,1-1.59,3.84Zm-87.23-4.5h81.8l-81.8-81.79Z" class="cls-3"></path><rect rx="44.74" height="89.48" width="89.48" y="556.74" x="647.34" class="cls-5"></rect><path d="M692.08,648.47a47,47,0,1,1,47-47A47,47,0,0,1,692.08,648.47Zm0-89.48a42.49,42.49,0,1,0,42.49,42.49A42.54,42.54,0,0,0,692.08,559Z" class="cls-3"></path><polygon points="423.65 512 423.65 690.95 244.69 512 423.65 512" class="cls-6"></polygon><path d="M423.65,693.2a2.26,2.26,0,0,1-1.59-.66l-179-178.95a2.23,2.23,0,0,1-.49-2.45,2.26,2.26,0,0,1,2.08-1.39h179A2.25,2.25,0,0,1,425.9,512V691a2.26,2.26,0,0,1-1.39,2.08A2.31,2.31,0,0,1,423.65,693.2Zm-173.53-179L421.4,685.52V514.25Z" class="cls-3"></path><path d="M518.07,415.1s-1.44,5.37-4.12,0c-.62-1.21-1.56-3.69-2.76-6.93-.81-2.16-1.74-4.65-2.76-7.35-4.22-11.13-10.34-25.51-16.26-32.86,4.65,11.22,10.32,28.14,11.85,46.72,0,0,2.07,14.69-1.25,9.32-.94-1.53-3.48-6.66-6.78-13.41v0c-.93-1.89-1.9-3.91-2.94-6-8.11-16.62-18.84-38.4-23.16-43.65-6.82-8.27-14.28-18-18.4-22.55s-14.49-8.89-15.32-34.95c-.61-19.35-.31-36.19-.12-43.59a19.29,19.29,0,0,1,5.82-13.36c3.15-3,8-6.06,15.36-7.82a54.84,54.84,0,0,1,5.42-1c7.66-1,13.66-1.93,18.28-2.74a118.52,118.52,0,0,0,13.29-2.85v16.33S486.8,253,473,258.46A83.91,83.91,0,0,0,469.89,279c0,27.09.83,30,2.48,32.26.93,1.28,6.09,4.92,11.28,9.48-4.77,2.06-4.61,7.86-4.61,7.86,1.4,2.51,2.48,2.46,5.43,2.45s2,3.27,2,3.27-.92,2.17,3.58.93,6.21,6.36,6.21,6.36a13.22,13.22,0,0,0,2,.4C506.52,360.52,521.42,397.88,518.07,415.1Z" class="cls-7"></path><path d="M503.94,426.68c-1.27,0-2.13-1.39-2.44-1.9-.94-1.51-3.13-5.92-6.85-13.54a.67.67,0,0,1-.06-.12l-1.27-2.6-1.61-3.3c-6.49-13.28-18.55-38-23-43.36-2.74-3.32-5.55-6.84-8.27-10.23-3.93-4.92-7.64-9.56-10.08-12.26a30.75,30.75,0,0,0-2.26-2.12c-5.07-4.47-12.73-11.22-13.45-33.79-.6-19-.33-35.53-.12-43.68a20.66,20.66,0,0,1,6.28-14.4c4-3.86,9.41-6.62,16.06-8.2a53.56,53.56,0,0,1,5.56-1c6.89-.9,13-1.82,18.22-2.73a123.61,123.61,0,0,0,13.1-2.8,1.47,1.47,0,0,1,1.34.22,1.51,1.51,0,0,1,.61,1.21v16.33a1.48,1.48,0,0,1-.7,1.27c-.3.19-7.45,4.61-20.76,9.91A80.78,80.78,0,0,0,471.39,279c0,26.44.83,29.5,2.19,31.38a41.5,41.5,0,0,0,4.15,3.52c2,1.58,4.44,3.55,6.91,5.71a1.51,1.51,0,0,1-.4,2.51c-3.2,1.38-3.63,4.95-3.69,6.09.8,1.35,1.23,1.35,3.78,1.34h0a3.55,3.55,0,0,1,3,1.29,4.41,4.41,0,0,1,.64,3.28,9.28,9.28,0,0,0,1.61-.32,4.83,4.83,0,0,1,3.86.52c2.3,1.38,3.49,4.47,4,6,.33.07.65.12,1,.16a1.5,1.5,0,0,1,1.19.88c7.18,16.09,23.49,55.52,19.9,74a.36.36,0,0,1,0,.1c-.2.77-1,3.28-3.06,3.49s-3.43-2.36-3.85-3.21c-.63-1.24-1.55-3.63-2.83-7.08l-.59-1.56c-.66-1.77-1.38-3.71-2.17-5.78-2.2-5.82-5-12.68-8-18.9a149.31,149.31,0,0,1,6.49,32.11c1.57,11.1,0,11.67-.94,12A1.82,1.82,0,0,1,503.94,426.68ZM497.4,410c2.21,4.53,4.42,9,5.75,11.54a66.6,66.6,0,0,0-.62-6.69c-1.53-18.59-7.23-35.46-11.75-46.36a1.5,1.5,0,0,1,2.56-1.52c6.07,7.54,12.32,22.26,16.49,33.28l2.17,5.78.59,1.58c1.21,3.25,2.13,5.65,2.7,6.77a6.52,6.52,0,0,0,.86,1.39,4.82,4.82,0,0,0,.46-1.05c3.4-17.8-13.53-58.19-19.38-71.38-.46-.09-.92-.19-1.38-.32A1.51,1.51,0,0,1,494.8,342c-.23-1-1.25-4.1-2.84-5.06a1.85,1.85,0,0,0-1.51-.19c-1.59.44-3.84.87-5-.45a2.41,2.41,0,0,1-.41-2.38,2,2,0,0,0,0-1.21.89.89,0,0,0-.52-.1h0c-3,0-4.94,0-6.75-3.22a1.49,1.49,0,0,1-.19-.69c0-.24-.1-5.21,3.56-8.12-1.88-1.59-3.71-3-5.25-4.28-2.76-2.2-4.11-3.29-4.69-4.1-1.87-2.58-2.77-5.06-2.77-33.14a84.58,84.58,0,0,1,3.16-20.93,1.47,1.47,0,0,1,.9-1,153,153,0,0,0,20.27-9.52V234c-2,.5-5.64,1.33-11.53,2.36-5.24.92-11.41,1.85-18.35,2.76a51.44,51.44,0,0,0-5.26,1c-6.11,1.45-11.05,4-14.67,7.44a17.68,17.68,0,0,0-5.36,12.32c-.21,8.12-.48,24.56.12,43.5.68,21.28,7.75,27.52,12.44,31.64.91.81,1.77,1.57,2.49,2.35,2.5,2.77,6.24,7.45,10.21,12.4,2.71,3.39,5.51,6.9,8.24,10.2,4.29,5.22,14.3,25.42,23.35,43.95l1.62,3.3,1.32,2.71Zm20.67,5.06h0Zm-30.21-80.21v0Z" class="cls-3"></path><path d="M493.05,208.48S486.9,220,480.93,234.91c-4.62.81-10.62,1.74-18.28,2.74a54.84,54.84,0,0,0-5.42,1h0l22-41.73Z" class="cls-7"></path><path d="M457.23,240.14a1.49,1.49,0,0,1-1.5-1.5,1.47,1.47,0,0,1,.18-.71l22-41.73a1.49,1.49,0,0,1,1-.78,1.52,1.52,0,0,1,1.25.32L494,207.32a1.52,1.52,0,0,1,.36,1.86c-.06.12-6.19,11.64-12.06,26.28a1.5,1.5,0,0,1-1.13.92c-5.24.92-11.41,1.85-18.35,2.76a51.44,51.44,0,0,0-5.26,1A1.34,1.34,0,0,1,457.23,240.14Zm22.43-40.9L460,236.53c.79-.14,1.6-.26,2.42-.37,6.54-.85,12.38-1.73,17.4-2.59,4.8-11.85,9.69-21.56,11.31-24.72Z" class="cls-3"></path><path d="M492.17,368a0,0,0,0,0,0,0" class="cls-7"></path><path d="M492.17,369.46a1.52,1.52,0,0,1-1.07-.45,1.48,1.48,0,0,1-.45-1.07,1.5,1.5,0,0,1,1.5-1.5,1.53,1.53,0,0,1,1.52,1.52A1.5,1.5,0,0,1,492.17,369.46Z" class="cls-3"></path><path d="M456.54,285l-.45-18a3.63,3.63,0,0,1,2.54-3.52c5.37-1.7,10.17-3.42,14.37-5.07" class="cls-7"></path><path d="M456.54,286.51A1.5,1.5,0,0,1,455,285l-.45-18a5.16,5.16,0,0,1,3.59-5c4.92-1.55,9.72-3.24,14.27-5a1.5,1.5,0,0,1,1.1,2.79c-4.61,1.81-9.48,3.53-14.47,5.11a2.15,2.15,0,0,0-1.49,2.06l.45,18a1.5,1.5,0,0,1-1.46,1.54Z" class="cls-3"></path><path d="M492.17,368a0,0,0,0,0,0,0,138,138,0,0,0-6.54-13.86" class="cls-7"></path><path d="M492.17,369.46a1.48,1.48,0,0,1-1.07-.45,1.45,1.45,0,0,1-.33-.5,138,138,0,0,0-6.46-13.69,1.5,1.5,0,1,1,2.61-1.48,138.45,138.45,0,0,1,6.57,13.91,1.53,1.53,0,0,1,.18.71A1.5,1.5,0,0,1,492.17,369.46Z" class="cls-3"></path><path d="M498.27,342a13.22,13.22,0,0,1-2-.4s-1.71-7.59-6.21-6.36-3.58-.93-3.58-.93.94-3.29-2-3.27-4,.06-5.43-2.45c0,0-.16-5.8,4.61-7.86,1.8-.78,4.3-1,7.8-.22,12.72,3,9,12.72,11.79,16.44C505.68,340.22,502.79,342.53,498.27,342Z" class="cls-6"></path><path d="M499.47,343.59a13,13,0,0,1-1.37-.08h0a15.32,15.32,0,0,1-2.24-.45A1.51,1.51,0,0,1,494.8,342c-.23-1-1.25-4.1-2.84-5.06a1.85,1.85,0,0,0-1.51-.19c-1.59.44-3.84.87-5-.45a2.41,2.41,0,0,1-.41-2.38,2,2,0,0,0,0-1.21s-.15-.11-.53-.1c-3,0-4.94,0-6.75-3.22a1.49,1.49,0,0,1-.19-.69c0-.27-.13-6.85,5.51-9.28,2.33-1,5.27-1.11,8.74-.31,9.91,2.31,10.9,8.79,11.56,13.07a9.61,9.61,0,0,0,1.09,3.93c1.76,2.34,1.19,4.14.7,5C504.22,342.67,502.11,343.59,499.47,343.59Zm-1-3.06c2.19.24,3.72-.3,4.09-1,.3-.51-.18-1.29-.49-1.7-1.06-1.42-1.35-3.29-1.65-5.28-.66-4.31-1.35-8.76-9.28-10.6-2.83-.66-5.14-.61-6.87.14-3.2,1.38-3.63,4.95-3.69,6.09.8,1.35,1.23,1.35,3.78,1.34h0a3.55,3.55,0,0,1,3,1.29,4.41,4.41,0,0,1,.64,3.28,9.28,9.28,0,0,0,1.61-.32,4.83,4.83,0,0,1,3.86.52c2.3,1.38,3.49,4.47,4,6C497.81,340.44,498.13,340.49,498.44,340.53Zm-10.58-5.64v0Z" class="cls-3"></path><path d="M476.87,337.28s3.57,19.4,20.78,4.81" class="cls-7"></path><path d="M486.39,349a9.22,9.22,0,0,1-3.1-.53c-6.22-2.22-7.83-10.59-7.9-10.95a1.5,1.5,0,0,1,2.95-.55c0,.07,1.37,7,6,8.68,3.18,1.13,7.34-.47,12.37-4.73a1.5,1.5,0,1,1,1.94,2.29C494.08,347.09,490,349,486.39,349Z" class="cls-3"></path><path d="M511.19,408.17c-.38,2.19-1,4.5-2.06,4.5-2,0-.73-11.55-.7-11.85C509.45,403.52,510.38,406,511.19,408.17Z" class="cls-7"></path><path d="M509.13,414.17a2.06,2.06,0,0,1-1.53-.7c-1.2-1.33-1.42-5.63-.67-12.77a1.53,1.53,0,0,1,1.3-1.35,1.47,1.47,0,0,1,1.6.94l2.17,5.78.59,1.58a1.44,1.44,0,0,1,.08.77C512.18,411.27,511.38,414.17,509.13,414.17Zm.38-6.2c0,.33,0,.64,0,.93,0-.18.08-.38.12-.59Z" class="cls-3"></path><path d="M496,410.57v0c-.31,2.43-1,5.49-2.19,5.49-1.81,0-.94-9.62-.75-11.52C494.09,406.66,495.06,408.68,496,410.57Z" class="cls-7"></path><path d="M493.8,417.58a2.05,2.05,0,0,1-1.52-.7c-1.19-1.32-1.43-5.52-.72-12.48a1.5,1.5,0,0,1,2.84-.51c.55,1.13,1.09,2.24,1.62,3.31l1.32,2.71a1.49,1.49,0,0,1,.15.66v0a1.28,1.28,0,0,1,0,.19C496.87,415.48,495.74,417.58,493.8,417.58Zm.38-7.3c0,.76,0,1.44,0,2,.09-.42.17-.92.26-1.5Z" class="cls-3"></path><path d="M438.56,561.2A17.18,17.18,0,0,1,421.4,544a2.25,2.25,0,0,1,4.5,0,12.66,12.66,0,1,0,25.32,0,2.25,2.25,0,0,1,4.5,0A17.18,17.18,0,0,1,438.56,561.2Z" class="cls-3"></path><path d="M468.39,561.2A17.19,17.19,0,0,1,451.22,544a2.25,2.25,0,0,1,4.5,0,12.67,12.67,0,1,0,25.33,0,2.25,2.25,0,0,1,4.5,0A17.18,17.18,0,0,1,468.39,561.2Z" class="cls-3"></path><path d="M498.21,561.2A17.18,17.18,0,0,1,481.05,544a2.25,2.25,0,0,1,4.5,0,12.67,12.67,0,1,0,25.33,0,2.25,2.25,0,0,1,4.5,0A17.19,17.19,0,0,1,498.21,561.2Z" class="cls-3"></path><path d="M528,561.2A17.18,17.18,0,0,1,510.88,544a2.25,2.25,0,0,1,4.5,0,12.66,12.66,0,1,0,25.32,0,2.25,2.25,0,0,1,4.5,0A17.18,17.18,0,0,1,528,561.2Z" class="cls-3"></path><path d="M557.86,561.2A17.18,17.18,0,0,1,540.7,544a2.25,2.25,0,0,1,4.5,0,12.67,12.67,0,1,0,25.33,0,2.25,2.25,0,0,1,4.5,0A17.19,17.19,0,0,1,557.86,561.2Z" class="cls-3"></path><path d="M587.69,561.2A17.18,17.18,0,0,1,570.53,544a2.25,2.25,0,0,1,4.5,0,12.66,12.66,0,1,0,25.32,0,2.25,2.25,0,0,1,4.5,0A17.18,17.18,0,0,1,587.69,561.2Z" class="cls-3"></path></svg>